{"title":"Night Catches Us 2010 DVDRip Xvid AC3 LKRG","uid":6051108,"size":1091517133,"categoryP":"video","categoryS":"movies","magnet":"?xt=urn:btih:9e9096ac3aa9963b8a1d4d86f33e68627c8d6363&amp;dn=Night+Catches+Us+2010+DVDRip+Xvid+AC3+LKRG&amp;tr=udp%3A%2F%2Ftracker.openbittorrent.com%3A80&amp;tr=udp%3A%2F%2Fopen.demonii.com%3A1337&amp;tr=udp%3A%2F%2Ftracker.coppersurfer.tk%3A6969&amp;tr=udp%3A%2F%2Fexodus.desync.com%3A6969","seeders":1,"leechers":0,"uploader":".BONE.","files":4,"time":1292729435,"description":"Format;Avi\n\nFile Size:1.02gb\n\nVideo: ID : 0\nFormat : MPEG-4 Visual\nFormat profile : Advanced Simple@L5\nFormat settings, BVOP : Yes\nFormat settings, QPel : No\nFormat settings, GMC : No warppoints\nFormat settings, Matrix : Default (H.263)\nCodec ID : XVID\nCodec ID/Hint : XviD\nDuration : 1h 12mn\nBit rate : 1 090 Kbps\nWidth : 704 pixels\nHeight : 384 pixels\nDisplay aspect ratio : 16:9\nFrame rate : 29.970 fps\nColor space : YUV\nChroma subsampling : 4:2:0\nBit depth : 8 bits\nScan type : Progressive\nBits/(Pixel*Frame) : 0.134\nStream size : 568 MiB (73%)\nWriting library : XviD 1.2.1 (UTC 2008-12-04)\n\nAudio: ID : 1\nFormat : AC-3\nFormat/Info : Audio Coding 3\nMode extension : CM (complete main)\nCodec ID : 2000\nDuration : 1h 12mn\nBit rate mode : Constant\nBit rate : 384 Kbps\nChannel(s) : 6 channels\nChannel positions : Front: L C R, Side: L R, LFE\nSampling rate : 48.0 KHz\nBit depth : 16 bits\nStream size : 200 MiB (26%)\nAlignment : Aligned on interleaves\nInterleave, duration : 32 ms (0.96 video frame)\n\nDuration:\n\nRelease Date:2010\n\nLanguage:English\n\nPlot: In 1976, complex political and emotional forces are set in motion when a young man returns to the race-torn Philadelphia neighborhood where he came of age during the Black Power movement.\n\nCast: Anthony Mackie ...\nMarcus Washington\nKerry Washington Kerry Washington ...\nPatricia Wilson\nWendell Pierce Wendell Pierce ...\nDavid Gordon\nJamie Hector Jamie Hector ...\n'DoRight' Miller\nTariq Trotter Tariq Trotter ...\nBostic Washington\nAmari Cheatom Amari Cheatom ...\nJimmy Dixon","torrent":{"xt":"urn:btih:9e9096ac3aa9963b8a1d4d86f33e68627c8d6363","amp;dn":"Night+Catches+Us+2010+DVDRip+Xvid+AC3+LKRG","amp;tr":["udp%3A%2F%2Ftracker.openbittorrent.com%3A80","udp%3A%2F%2Fopen.demonii.com%3A1337","udp%3A%2F%2Ftracker.coppersurfer.tk%3A6969","udp%3A%2F%2Fexodus.desync.com%3A6969"],"infoHash":"9e9096ac3aa9963b8a1d4d86f33e68627c8d6363","infoHashBuffer":{"type":"Buffer","data":[158,144,150,172,58,169,150,59,138,29,77,134,243,62,104,98,124,141,99,99]},"announce":[],"urlList":[]}}